# xmcd
#
# Track frame offsets: 
#        150
#        17867
#        35458
#        56607
#        75344
#        91367
#        105247
#        122712
#        137012
#        150279
#        166875
#        181060
#
# Disc length: 2723 seconds
#
# Revision: 0
# Processed by: cddbd v1.5.2PL0 Copyright (c) Steve Scherf et al.
# Submitted via: ExactAudioCopy v0.95b4
#
DISCID=810aa10c
DTITLE=Jorge Fernando - Velho Fado
DYEAR=2006
DGENRE=Fado
TTITLE0=Valsa dos Amantes
TTITLE1=Ausente
TTITLE2=Chuva
TTITLE3=Lágrima
TTITLE4=Foste Só Quem Deus Fez
TTITLE5=Tantos Fados Deu-Me a Vida
TTITLE6=Velho Fado
TTITLE7=Rosas Brancas Para o Meu Amor
TTITLE8=Senhora Minha
TTITLE9=Quisera
TTITLE10=Quem Diria
TTITLE11=La Chanson Des Vieux Amants
EXTD=
EXTT0=
EXTT1=
EXTT2=
EXTT3=
EXTT4=
EXTT5=
EXTT6=
EXTT7=
EXTT8=
EXTT9=
EXTT10=
EXTT11=
PLAYORDER=
